<svg version="1.0" xmlns="http://www.w3.org/2000/svg" width="301.333" height="564" viewBox="0 0 226 423"><path d="M46.4 1.9c-9.7 5.9-31 48.6-38 76-4.9 19.2-2.7 35.4 5.9 44.8 6 6.5 10.4 8.7 28.2 13.8 14.5 4.2 40.9 13.7 47.8 17.2 1.5.7 2.7 1.1 2.7.7 0-.4-2.5-8.4-5.6-17.8C76.5 103 68.6 68.7 63.1 30.9c-3.2-21.8-4-25.1-7.3-28.7-2.6-2.7-5.3-2.8-9.4-.3zM15.7 167.4c-6 1.6-10.9 6.2-13.8 13-3.3 7.6-2.3 24.9 2.5 44.1 8.8 35.3 18 52.3 34 62.7 8.1 5.2 14.7 7.5 29.4 10 10.9 1.9 16.5 2.2 39.7 2.2 23.8.1 65.5-2.3 70.4-4 .9-.3-1-2.9-5.5-7.7-9.7-10.1-17-19.4-32.5-40.7-7.3-10.1-16.7-22.5-20.8-27.4-21.2-25.2-52.8-44.9-83.1-51.7-9.9-2.2-13.7-2.3-20.3-.5zM163 327.3c-.7.7-30.4 2.6-58 3.7-29.6 1.2-35 2.6-35 8.9 0 9.7 26.4 34.3 56 52.1 15.1 9.2 38.6 20.3 52.5 24.9 25.3 8.4 39.6 7.2 45.3-3.9 3.9-7.5 2.8-15.9-5.8-43.4-3.9-12.7-7.7-24.4-8.4-26.1-2.2-5.1-7.1-9.9-13.3-13-5.4-2.7-6.7-3-19.3-3.3-7.4-.2-13.7-.2-14 .1z" fill="#4f2b0b"/></svg>