<svg version="1.0" xmlns="http://www.w3.org/2000/svg" width="390.667" height="442.667" viewBox="0 0 293 332"><path d="M269.7 3.1c-5 3.3-10.5 9.8-25.6 30.4-13 17.7-25 31.6-41.4 47.7-9 9-13.2 13.8-12 13.8 1 0 6.8-.9 12.9-1.9 6.1-1.1 20.1-2.9 31-4 10.9-1.1 23.1-2.5 27-3 13.8-1.6 24.1-8.8 28.6-19.9 2-5.1 2.3-7.3 2.2-19.7-.1-14.7-2.3-30.6-5-37.5-2-4.9-6.6-9-10.3-9-1.5 0-4.9 1.4-7.4 3.1zM231 121.7c-61.7 6-101.5 18.6-167.5 52.8-15.1 7.9-46.6 23-55.5 26.8-2.3.9-2.2 1.1 2.5 1.8 6.8 1 38.7 3.6 62.5 5 10.7.7 38.6 1.2 62 1.2 72.5 0 97.2-3.3 115.9-15.7 12.2-8.1 20.3-20.5 25.6-39 7.2-25.3-.7-33.9-30.8-33.4-6.2 0-12.8.3-14.7.5zM9.7 237.4c-4.9 1.8-6.7 3.4-8.4 7.3-2.1 5.1-1.6 10.5 2.3 21.9 8.1 24.3 14.2 35.4 26.3 47.4 15.6 15.5 33.9 20.9 56.3 16.6 10.2-2 32-9.4 46.3-15.8 20.3-9.2 38-20 58.3-35.6 17.8-13.8 26.2-23 26.2-28.8 0-7.3-6.1-8.1-73.5-8.8-51.4-.6-77-1.6-107.5-4.1-20.8-1.8-21.5-1.8-26.3-.1z" fill="#50a146"/></svg>