<svg version="1.0" xmlns="http://www.w3.org/2000/svg" width="724" height="732" viewBox="0 0 543 549"><path d="M281.9 2c-14 2.5-23.5 13.5-27.9 32.3-2.6 10.9-11 72.7-11 80.6 0 .5 4.8-2.7 10.7-7.1 5.9-4.4 25.6-18 43.7-30.1 36.9-24.5 42.3-28.4 51.5-37.2 7.5-7.1 9.1-9.9 9.1-15.8 0-8.5-7.5-13.3-28.5-18.2C311.9 2.4 290.7.3 281.9 2zm-88.4 10.6c-13.3 2-24.2 5.7-40 13.6C130 38 122 44.6 122 52.4c0 6.4 5.8 11 26.4 21 25.6 12.4 39.1 21.4 54.9 36.7 4.5 4.3 8.2 7.7 8.4 7.6.1-.2 2.3-16.5 4.8-36.2 5.6-43.1 5.8-53.9 1.3-61.6-4.5-7.7-10.3-9.4-24.3-7.3zM404 50.5c-7.6 1.6-12.3 3.9-28.8 13.8-31.9 19.3-90.3 57.9-104.7 69.2-21.4 16.8-31.3 33.5-36 60.3-1.4 8.1-4.7 46.3-4 47 .1.2 2.9-2.3 6.1-5.4 19.3-18.7 55.8-39.8 116.9-67.4 14.9-6.7 32-14.4 38-17.2 45.4-20.5 67.5-43.5 63.5-66-2-10.7-7-18.2-17.7-26.6-9.5-7.4-21.8-10.2-33.3-7.7zM84.6 91.1C72 93.2 57.4 104 46.8 119c-14.1 19.9-11 42.2 8.7 62.3 10.8 11 24.8 18.1 57.2 29.1 36.5 12.4 67.6 25.2 79.6 32.9 3.2 2 5.9 3.7 6.1 3.7.3 0 .7-3.3 1-7.3.3-3.9 1.5-18 2.7-31.2 1.3-14.6 1.9-27.1 1.5-31.8-.7-9.3-5-22.9-10-31.4-13.9-23.8-49.7-45.8-86.3-53.2-10.7-2.2-14.7-2.4-22.7-1zm399.7 32.8c-4.3 2.7-8.6 11.9-12.9 28.1-8.2 31.1-17.9 58.5-28.7 81-2.5 5.2-4.4 9.7-4.2 9.9.2.2 1.6-.6 3.2-1.6 6-4.2 27.2-15.8 46.3-25.4 27.3-13.7 32.6-19.3 33.8-35 .8-11-3.3-22-15.9-43.4-8.2-13.8-14.7-17.9-21.6-13.6zM406 183.4c-18.3 4.2-49.2 17.2-93 39.1-24.9 12.4-37.5 19.8-48.3 28.4-24.4 19.6-33.2 39.5-28.3 64.1 1.9 9.1 7.9 26.3 13.3 37.8 7 15 22.9 39.2 25.8 39.2 2.1 0 39.9-38.1 57.6-58 39.6-44.5 62.2-74.6 77.8-103.6 9.7-18.1 14.2-29 14.8-36.4.5-4.9.2-6-1.8-8.3-2.9-3.4-9.6-4.2-17.9-2.3zM12.6 205.1c-6.2 3.7-11.1 30-11.5 62.5-.5 39 8 59.8 27.1 66.2 5.2 1.7 8 2 15.8 1.7 5.2-.3 10.6-.7 12-1.1 1.4-.3 13.5-.8 27-1 13.4-.3 24.7-.7 24.9-1 .3-.2-.9-1.9-2.6-3.7-4.9-5.2-22.1-27.2-31.4-40.2-15.1-21-29.7-44.4-42.3-67.8-7.7-14.2-13.3-18.8-19-15.6zm73.7 35.5c-2.1.9-1.5 6.6 1.3 11.9 10.5 19.8 41.2 58.3 66.9 84 27.1 27.2 57.7 49.6 82.3 60.5l4.4 2-1.8-2.8c-15-22.8-25.4-45.2-36.4-78.7-2.9-8.8-6.5-18.5-8-21.6-9-17.8-25-30.5-52.3-41.6-12.6-5.1-11.8-4.8-28.2-9.8-11.3-3.4-25.1-5.3-28.2-3.9zm425.7 2.3c-21.3 5.8-57.7 25.6-86.6 47.2-23.6 17.6-40.6 34-77.5 74.4-12.5 13.7-26.8 29.3-31.8 34.5-5 5.2-8.9 9.5-8.8 9.6.3.4 8.8-1.9 29.2-7.9 63.7-18.8 139.2-48.1 169.1-65.8 28.6-16.9 39.7-38.8 35.5-70.2-2.8-21.1-10.4-26.8-29.1-21.8zM67 365.5c-.8.2-4.9.9-9 1.5-20.8 3.4-29.3 16.4-22.6 34.3 5.2 13.8 14 28 28.1 45.3 17.6 21.3 30.8 29.6 49.5 31.1 15.8 1.2 45.9-6.6 74.9-19.4 16-7 51.1-24 51.1-24.6 0-.3-4.6-2.8-10.2-5.6-12.1-5.9-25.2-13.7-47.8-28.5-36.6-23.9-63-33.1-97-34.1-8.5-.2-16.2-.2-17 0zm438.5 10.2c-3.3.9-17.2 5.8-31 11-56.2 21.3-95.3 34.8-138.5 47.7-10.2 3.1-14.4 5.5-17 9.8-2.7 4.4-2.5 8.4.5 14.5 2.8 5.5 13.3 18.3 22.9 27.8 25 24.8 55.8 30.2 82.6 14.5 15.2-9 41.6-33.1 57.3-52.5 19-23.5 38.7-57.9 38.7-67.8 0-6.6-4.2-7.9-15.5-5zM257.2 461c-2.4.5-13 5-23.5 10.1-10.6 5-27.5 12.6-37.7 17-37.2 15.8-44.7 20.7-41.7 26.9 3.8 7.6 32.4 19.8 62.3 26.4 24.3 5.4 66.7 7.5 82.9 4.1 29.5-6.2 32.3-20.5 9.6-48.6-2.6-3.1-7.5-9.4-11.1-14-9.2-11.9-14.9-17.8-19.3-20.1-4.5-2.2-15.1-3.1-21.5-1.8z"/></svg>