<?xml version="1.0" standalone="no"?>
<!DOCTYPE svg PUBLIC "-//W3C//DTD SVG 20010904//EN"
 "http://www.w3.org/TR/2001/REC-SVG-20010904/DTD/svg10.dtd">
<svg version="1.0" xmlns="http://www.w3.org/2000/svg"
 width="543.000000pt" height="549.000000pt" viewBox="0 0 543.000000 549.000000"
 preserveAspectRatio="xMidYMid meet">

<g transform="translate(0.000000,549.000000) scale(0.100000,-0.100000)"
fill="#000000" stroke="none">
<path d="M2819 5470 c-140 -25 -235 -135 -279 -323 -26 -109 -110 -727 -110
-806 0 -5 48 27 107 71 59 44 256 180 437 301 369 245 423 284 515 372 75 71
91 99 91 158 0 85 -75 133 -285 182 -176 41 -388 62 -476 45z"/>
<path d="M1935 5364 c-133 -20 -242 -57 -400 -136 -235 -118 -315 -184 -315
-262 0 -64 58 -110 264 -210 256 -124 391 -214 549 -367 45 -43 82 -77 84 -76
1 2 23 165 48 362 56 431 58 539 13 616 -45 77 -103 94 -243 73z"/>
<path d="M4040 4985 c-76 -16 -123 -39 -288 -138 -319 -193 -903 -579 -1047
-692 -214 -168 -313 -335 -360 -603 -14 -81 -47 -463 -40 -470 1 -2 29 23 61
54 193 187 558 398 1169 674 149 67 320 144 380 172 454 205 675 435 635 660
-20 107 -70 182 -177 266 -95 74 -218 102 -333 77z"/>
<path d="M846 4579 c-126 -21 -272 -129 -378 -279 -141 -199 -110 -422 87
-623 108 -110 248 -181 572 -291 365 -124 676 -252 796 -329 32 -20 59 -37 61
-37 3 0 7 33 10 73 3 39 15 180 27 312 13 146 19 271 15 318 -7 93 -50 229
-100 314 -139 238 -497 458 -863 532 -107 22 -147 24 -227 10z"/>
<path d="M4843 4251 c-43 -27 -86 -119 -129 -281 -82 -311 -179 -585 -287
-810 -25 -52 -44 -97 -42 -99 2 -2 16 6 32 16 60 42 272 158 463 254 273 137
326 193 338 350 8 110 -33 220 -159 434 -82 138 -147 179 -216 136z"/>
<path d="M4060 3656 c-183 -42 -492 -172 -930 -391 -249 -124 -375 -198 -483
-284 -244 -196 -332 -395 -283 -641 19 -91 79 -263 133 -378 70 -150 229 -392
258 -392 21 0 399 381 576 580 396 445 622 746 778 1036 97 181 142 290 148
364 5 49 2 60 -18 83 -29 34 -96 42 -179 23z"/>
<path d="M126 3439 c-62 -37 -111 -300 -115 -625 -5 -390 80 -598 271 -662 52
-17 80 -20 158 -17 52 3 106 7 120 11 14 3 135 8 270 10 134 3 247 7 249 10 3
2 -9 19 -26 37 -49 52 -221 272 -314 402 -151 210 -297 444 -423 678 -77 142
-133 188 -190 156z"/>
<path d="M863 3084 c-21 -9 -15 -66 13 -119 105 -198 412 -583 669 -840 271
-272 577 -496 823 -605 l44 -20 -18 28 c-150 228 -254 452 -364 787 -29 88
-65 185 -80 216 -90 178 -250 305 -523 416 -126 51 -118 48 -282 98 -113 34
-251 53 -282 39z"/>
<path d="M5120 3061 c-213 -58 -577 -256 -866 -472 -236 -176 -406 -340 -775
-744 -125 -137 -268 -293 -318 -345 -50 -52 -89 -95 -88 -96 3 -4 88 19 292
79 637 188 1392 481 1691 658 286 169 397 388 355 702 -28 211 -104 268 -291
218z"/>
<path d="M670 1835 c-8 -2 -49 -9 -90 -15 -208 -34 -293 -164 -226 -343 52
-138 140 -280 281 -453 176 -213 308 -296 495 -311 158 -12 459 66 749 194
160 70 511 240 511 246 0 3 -46 28 -102 56 -121 59 -252 137 -478 285 -366
239 -630 331 -970 341 -85 2 -162 2 -170 0z"/>
<path d="M5055 1733 c-33 -9 -172 -58 -310 -110 -562 -213 -953 -348 -1385
-477 -102 -31 -144 -55 -170 -98 -27 -44 -25 -84 5 -145 28 -55 133 -183 229
-278 250 -248 558 -302 826 -145 152 90 416 331 573 525 190 235 387 579 387
678 0 66 -42 79 -155 50z"/>
<path d="M2572 880 c-24 -5 -130 -50 -235 -101 -106 -50 -275 -126 -377 -170
-372 -158 -447 -207 -417 -269 38 -76 324 -198 623 -264 243 -54 667 -75 829
-41 295 62 323 205 96 486 -26 31 -75 94 -111 140 -92 119 -149 178 -193 201
-45 22 -151 31 -215 18z"/>
</g>
</svg>
