<?xml version="1.0" standalone="no"?>
<!DOCTYPE svg PUBLIC "-//W3C//DTD SVG 20010904//EN"
 "http://www.w3.org/TR/2001/REC-SVG-20010904/DTD/svg10.dtd">
<svg class="color" version="1.0" xmlns="http://www.w3.org/2000/svg"
 width="399.000000pt" height="399.000000pt" viewBox="0 0 399.000000 399.000000"
 preserveAspectRatio="xMidYMid meet">
    <g transform="translate(0.000000,399.000000) scale(0.100000,-0.100000)" stroke="none">
        <path fill="#000000" d="M1850 2270 c0 -434 -3 -790 -7 -790 -5 0 -163 149 -353 331 l-345
        330 -102 -108 c-56 -59 -102 -110 -103 -113 0 -11 1045 -1005 1056 -1005 16 0
        1054 994 1054 1009 0 6 -46 57 -102 113 l-103 102 -342 -329 c-188 -182 -344
        -330 -347 -330 -3 0 -6 356 -6 790 l0 790 -150 0 -150 0 0 -790z"/>
    </g>
</svg>
