<svg version="1.0" xmlns="http://www.w3.org/2000/svg" width="388" height="484" viewBox="0 0 291 363"><path d="M145.7 1.1c-8.8 2.1-18.3 9.5-25.4 19.9-6.6 9.7-40.4 72-39 72 .2 0 2.4-.7 4.8-1.5 7.1-2.6 29.1-7.9 65.6-16 37.2-8.2 56.9-14 63.4-18.7 12.3-8.9 7.2-20.3-16.1-35.6-10.4-6.9-28-16.1-35-18.5-6.2-2-13.8-2.7-18.3-1.6zm83.8 90.5c-57.7 10.5-120.4 24.5-136.6 30.3-25.7 9.4-41.2 25-56.9 57.6-7.2 14.8-12.1 25.5-11.6 25.5.1 0 4-1.5 8.7-3.4 28.2-11.4 67-16.9 149.4-21.1 16.5-.9 34.1-2 39-2.6 28.6-3.1 50.7-11.3 60.2-22.3 5.8-6.5 7.6-11.2 8.1-20.6.3-7.3 0-9.4-2.2-15.3-3-8-9.1-17-14.1-21-2-1.6-6.1-4-9.3-5.5-4.9-2.2-7.2-2.7-16.2-2.9-5.9-.1-14 .4-18.5 1.3zM162 214.2c-22.2.8-64.4 4.1-80 6.4-47.7 6.8-71.6 23-78.7 53.1-2.2 9.5-2.5 43-.4 55.8 1.3 8.3 5.7 27.2 7.1 31.1l.9 2.3 7.3-2.9c41.7-16.1 108.4-50.8 147.3-76.5 25.6-17 54.3-43.1 58-52.9 5.4-14.2-9.8-18.2-61.5-16.4z" fill="#df5900"/></svg>