<svg version="1.0" xmlns="http://www.w3.org/2000/svg" width="289.333" height="508" viewBox="0 0 217 381"><path d="M155.5.6c-23.2 2.4-34.8 5.5-39 10.5-5.4 6.5-2.4 13.6 12.9 29.8 14.4 15.3 19.7 21.8 26.9 32.6 5.8 8.7 14.2 24.8 16.6 31.6.7 1.9 1.5 2.9 2 2.3 2.3-2.4 36.7-67.5 38.7-73.3 2.8-7.8 3.1-15.9.7-20.8C210.5 5.3 197.1 1 174 .5c-8-.1-16.3-.1-18.5.1zM45 37.5C31.6 41.2 15.1 51.4 8.9 59.6-1.1 72.8-2.4 88.7 5 108.3c5.1 13.6 18.3 29 40.5 47.2 29.3 24.1 57.6 50.8 65 61.3 2.8 3.9 5.2 7.1 5.5 7.2.3 0 1.9-3 3.4-6.8 1.6-3.7 7.8-16.4 13.7-28.3 14.2-28.6 15.4-32.5 15.3-50.4 0-12.4-.3-14.9-2.7-22-6.1-18.4-23.5-42.6-41.4-57.6-10.8-9.1-23.7-17.5-30.8-20-7.8-2.9-20.9-3.5-28.5-1.4zM10.9 179.2C8 184.5 14.7 214.5 27 251c14.3 43 30.8 75.9 52.5 104.8 8.7 11.7 21.9 25.9 21.1 22.7-1.5-5.4-4.6-26.4-5.7-38-.8-9.1-.9-20-.3-36.5 1-29.3.8-37.3-1.1-45.8-4.7-20.2-22.8-42.5-53.9-66.7-17.5-13.5-26.1-17.2-28.7-12.3z" fill="#15352e"/></svg>