<svg xmlns="http://www.w3.org/2000/svg" xmlns:xlink="http://www.w3.org/1999/xlink" id="Layer_1" data-name="Layer 1" viewBox="0 0 225.06 102.8"><defs><style>.cls-1{fill:none;}.cls-2{fill:#a41e21;}.cls-3{fill:#a71e22;}.cls-4{clip-path:url(#clip-path);}.cls-5{fill:#fff;}</style><clipPath id="clip-path"><rect class="cls-1" x="0.06" y="-0.03" width="225.07" height="102.75"></rect></clipPath></defs><rect class="cls-2" x="0.06" y="-0.03" width="225.07" height="102.75"></rect><rect class="cls-3" x="0.06" y="-0.03" width="225.07" height="102.75"></rect><g class="cls-4"><path class="cls-5" d="M37.49,51.55c0-11.58,7.29-18.36,18.21-18.36,4.95,0,8,1,10.61,2.53v6.72H62.58A9.47,9.47,0,0,0,56,40.12c-5.36,0-8.55,3.59-8.55,11.08,0,8.09,2.79,11.53,8.1,11.53a10.18,10.18,0,0,0,7.68-3.08h3.44v6.41A19.28,19.28,0,0,1,54.89,69.5c-10.62,0-17.4-6.47-17.4-18"></path><polygon class="cls-5" points="79.26 61.06 76.89 69.04 69.2 69.04 69.2 66.77 80.47 33.65 90.99 33.65 102.42 66.77 102.42 69.04 93.02 69.04 90.54 61.06 88.57 54.48 84.92 42.55 84.83 42.55 81.24 54.48 79.26 61.06"></polygon><rect class="cls-5" x="106.31" y="33.65" width="9.76" height="35.4"></rect><path class="cls-5" d="M135.29,56.05H131.6V69h-9.71V33.65h13.29c9.41,0,14.17,3.74,14.17,10.82a10.24,10.24,0,0,1-5.26,9.46l7,12.84V69h-9Zm-3.79-6.32h3.08c3.59,0,5.16-1.61,5.16-4.76s-1.57-4.75-5.16-4.75H131.5Z"></path><polygon class="cls-5" points="155.17 33.65 165.53 33.65 177.11 54.12 177.26 54.12 177.26 33.65 185.25 33.65 185.25 69.04 176.45 69.04 163.25 45.83 163.1 45.83 163.1 69.04 155.17 69.04 155.17 33.65"></polygon></g></svg>