<svg version="1.0" xmlns="http://www.w3.org/2000/svg" width="1113.333" height="660" viewBox="0 0 835 495"><path d="M484 2.5c-30.8 6.2-48.7 28.4-57 70.7-3.7 19.4-10.7 80.2-15 130.8-2.6 30.4-2.7 27.8 1.8 24 21.6-18.4 45.9-36.3 114.2-84 54.1-37.9 75-53.9 91.1-69.9 8.1-8.1 11.3-12.2 13.9-17.4 7.6-15.6 2.3-28.5-15.4-37.2-7.7-3.8-32-10-53.1-13.5-27.3-4.5-66.9-6.2-80.5-3.5zM311.5 28.1c-19.1 2.6-44.3 11.6-75.6 27-41 20.2-63.5 36.2-69.6 49.6-7.7 16.7 6.2 29.8 51.2 48.3 48.5 19.9 90 45.8 118.7 74 6.5 6.4 11.8 11.2 11.8 10.6 0-1.6 6.9-69.5 10.6-104.1 4.5-42.7 5.2-58.9 3-71.5-3-16.7-8.6-25.9-19.1-31.1-5.5-2.7-7.8-3.2-15.2-3.5-4.9-.1-11.9.2-15.8.7zm420.3 61.4c-16 3.5-31.2 11.8-79.6 43.3-57.3 37.4-159.1 108.7-184.7 129.4-48.3 39.1-68 78.5-73.5 146.8-1 12.5-3.8 70.2-3.5 70.8.1.1 5.8-5.3 12.6-12.1 25.3-25.2 60.7-50.5 110.8-79.2 37.5-21.4 81.7-44 154.1-78.7 21.7-10.4 46.3-22.4 54.5-26.7 55-28.6 90.3-58.2 104.5-87.5 13.7-28.3 7.2-58.4-17.6-81.5-13.9-13-29.1-21.2-45.4-24.7-7.9-1.7-24.4-1.6-32.2.1zM94 192.5c-26.8 5.4-50.5 22.4-71.4 51.1C.6 274-4.6 302.5 6.9 330.1c12 28.7 34.7 51.8 68 68.8 20.2 10.3 39.6 17.1 115.1 40 44.6 13.6 69.9 22 86.3 28.7 11.6 4.7 36.3 17.2 45.5 23.1 2.9 1.8 5.7 3.1 6.1 2.9.4-.3 1.1-11 1.4-23.8.4-12.8 1.6-35.5 2.8-50.3 4.5-56.5 2.2-81.1-10-109.5-13.7-31.7-42.8-60.1-84.5-82.5-27.6-14.8-70.5-29.3-103-35-10.7-1.8-31.5-1.8-40.6 0z" fill="#50A146"/></svg>