<svg version="1.0" xmlns="http://www.w3.org/2000/svg" width="557.333" height="628" viewBox="0 0 418 471"><path d="M105.1 1c-14 3.5-8.7 18.4 20.6 57.3 32 42.5 58.7 73.3 94.7 109.2 45.6 45.6 84.8 77.1 129.4 103.8 21.8 13.1 65.4 34.8 66.9 33.3.3-.2-1.6-3.2-4.1-6.5-11.3-15.4-30.4-48-43-73.6-10.6-21.3-19.9-43.7-28.2-67.5-18-51.8-23.8-62.8-44.3-83-24.3-24.1-57-41-111.1-57.4-39.9-12-71.1-18.1-80.9-15.6zM84 249.6c-1.9.2-7.8.9-13 1.5-49.8 5.7-71.6 22-69.7 52 1.8 27.4 27.5 69.5 74.1 121.2 16.2 18 38.7 33.3 58.6 40 13.6 4.5 18.6 5.2 36.5 5.1 15.2-.1 18.5-.4 31.4-3.2 32.6-7.2 63.8-17.8 100.1-34.2 28.2-12.8 113.2-56.4 113.4-58.3.1-.4-4.6-2.7-10.4-5.1-25.6-10.4-47.9-22.2-93-49.1-49.7-29.7-61.1-35.9-82-44.5-27.9-11.4-57.7-19.5-86.5-23.5-10.4-1.5-52-2.8-59.5-1.9z" fill="#005E33"/></svg>