<svg version="1.0" xmlns="http://www.w3.org/2000/svg" width="621.333" height="722.667" viewBox="0 0 466 542"><path d="M419.8 1.2c-8.8 1-23 5.6-40.3 13-69.7 29.8-148.3 85-214 150.3-22 21.9-40.4 42-76.5 84-34 39.6-55.1 63.3-74.3 83.7C6.5 340.9.3 348 .8 348c2.3 0 39.6-11.5 64.2-19.8 79.9-27 179.8-66.1 239.8-93.9 46.7-21.6 84.4-41.7 102.5-54.5 43-30.5 61-65.5 58.2-113.8-2.8-50.7-15.4-68.6-45.7-64.8zm-13.4 264.3c-10.4 2.2-22.3 6.8-73 27.6-120.3 49.4-183.4 73.4-256.3 97.5-17.2 5.7-33.3 11.5-35.8 12.9-14.8 8.8-20.1 20.4-15.4 34.3 2.8 8.3 5.6 12.7 16 24.7 40 46.5 71.9 68.7 111.2 77.1 11 2.4 35.2 2.4 45.6.1 22.2-5 43.8-16.1 63.8-32.6 34.4-28.5 67.2-61.5 91.9-92.6 25.2-31.7 62.5-95.1 71.2-121 3.5-10.4 4.3-20.5 2-24.1-3.4-5.2-9.9-6.4-21.2-3.9z" fill="#655046"/></svg>